.
 
http://www.scenetime.com    -  Hottest private tracker on the net. !!!

New release on http://www.scenetime.com

        Seed back for speed


...................................NFO:.................................................                                                                                                     
       
     
     
       
       
     
     
                                         
                                         
                EXVID                    
                                         
         
                                         
         Filled the Archives             
                                         
         
                                         
                With:                    
                                         
         
                                         
                                    
     E240                           
                                    
     SP               (C) 2009      
                                         
     
     
     
                                                                                  
                                                                                   
                Death.Sentence.2007.WS.DVDRip.XviD-EXViD                            
                                                                                   
                                                                                  
     
                                                                                               
EXViD aims to iNTERNAL those releases which have been lost in the archives.
EXViD aims to PRE non-internal releases which have poor sources and are likely skipped by others.
 
http://www.imdb.com/title/tt0804461/
Subtitles: English
Date: 2011.09

Director: James Wan

Genres: Action | Crime | Drama | Thriller

Plot:
Nick Hume is a mild-mannered executive with a perfect life, until one gruesome night he
witnesses something that changes him forever. Transformed by grief, Hume eventually comes
to the disturbing conclusion that no length is too great when protecting his family. 

Cast:
Kevin Bacon 	 ... 	 Nick Hume
Garrett Hedlund 	 ... 	 Billy Darley
Kelly Preston 	 ... 	 Helen Hume
Jordan Garrett 	 ... 	 Lucas Hume
Stuart Lafferty 	 ... 	 Brendan Hume
Aisha Tyler 	 ... 	 Detective Wallis
John Goodman 	 ... 	 Bones Darley
Matt O'Leary 	 ... 	 Joe Darley (as Matthew O'Leary)
Edi Gathegi 	 ... 	 Bodie
Hector Atreyu Ruiz 	 ... 	 Heco
Kanin Howell 	 ... 	 Baggy
Dennis Keiffer 	 ... 	 Jamie
Freddy Bouciegues 	 ... 	 Tommy
Leigh Whannell 	 ... 	 Spink
Casey Pieretti 	 ... 	 Dog

Stats:
Format                           : AVI
Format/Info                      : Audio Video Interleave
File size                        : 701 MiB
Duration                         : 1h 41mn
Overall bit rate                 : 968 Kbps
Writing application              : Nandub v1.0rc2
Writing library                  : Nandub build 1852/release

Video
ID                               : 0
Format                           : MPEG-4 Visual
Format profile                   : Advanced Simple@L5
Format settings, BVOP            : 2
Format settings, QPel            : No
Format settings, GMC             : No warppoints
Format settings, Matrix          : Default (H.263)
Codec ID                         : XVID
Codec ID/Hint                    : XviD
Duration                         : 1h 41mn
Bit rate                         : 834 Kbps
Width                            : 624 pixels
Height                           : 256 pixels
Display aspect ratio             : 2.40:1
Frame rate                       : 25.000 fps
Color space                      : YUV
Chroma subsampling               : 4:2:0
Bit depth                        : 8 bits
Scan type                        : Progressive
Compression mode                 : Lossy
Bits/(Pixel*Frame)               : 0.209
Stream size                      : 604 MiB (86%)
Writing library                  : XviD 64

Audio
ID                               : 1
Format                           : MPEG Audio
Format version                   : Version 1
Format profile                   : Layer 3
Mode                             : Joint stereo
Codec ID                         : 55
Codec ID/Hint                    : MP3
Duration                         : 1h 41mn
Bit rate mode                    : Variable
Bit rate                         : 121 Kbps
Nominal bit rate                 : 128 Kbps
Channel(s)                       : 2 channels
Sampling rate                    : 48.0 KHz
Compression mode                 : Lossy
Stream size                      : 87.8 MiB (13%)
Alignment                        : Aligned on interleaves
Interleave, duration             : 24 ms (0.60 video frame)
Interleave, preload duration     : 145 ms
Writing library                  : LAME3.98r
Encoding settings                : -m j -V 4 -q 3 -lowpass 17 --abr 128




Release notes:
Death.Sentence.DVDRip.XviD-iMBT used an Asian DVD source with 1.78:1 AR. Ours is 2.40:1.
ESPiSE rip was a different version: http://www.movie-censorship.com/report.php?ID=4695

enjoy!

Looking for:
75TB+ Archives
DUTCH/FLEMiSH Archives
                                                                                                    
Greets: CRBS EPiSODE FiCO FLS iLS KLASSiGER LiPSYNC MADE NODLABS RUNNER SPRiNTER      
   

                                                                    ASCII DONE BY XX^NFO 2oo9